:FULLY-SPECIFIED
:FORCE-ALL-JOINTS-BE-3DOF
:DEGREES
1053
root 1.20588 15.1603 32.5539 4.88644 -3.36577 3.42599
lfemur 8.79575 0.432647 5.69746
ltibia 5.40694e-14 -0 0
lfoot -30.3995 -11.1482 -2.34419e-05
ltoes -34.2747 0 0
rfemur -31.0114 -15.7573 -6.28179
rtibia 49.9955 -0 0
rfoot -21.8897 5.49121 -0.000183618
rtoes -40.959 0 0
lowerback -1.83275 -0.0582778 -0.217703
upperback -0.475904 -0.0399896 -6.02525
thorax 0.535148 -0.0213671 -6.12344
lowerneck -7.06428 0.721311 6.48381
upperneck 1.35022 0.272901 3.69548
head 1.62443 0.266217 0.0739842
lclavicle 6.95746e-16 4.29375e-14 0
lhumerus -58.7179 -46.9466 115.422
lradius 55.8229 -0 0
lwrist 25.6546 0 0
lhand 37.4376 25.2683 1.57581e-05
lfingers 7.12502 -0 0
lthumb 60.2392 38.7948 -1.26065e-05
rclavicle 6.95746e-16 4.29375e-14 0
rhumerus 2.1477 -23.5945 0.624473
rradius 27.4635 -0 0
rwrist -9.65866 0 0
rhand -30.561 -42.0777 0.000141539
rfingers 7.12502 -0 0
rthumb -3.85921 -72.0222 0.00013601
1054
root 1.20753 15.1606 32.558 4.88834 -3.36024 3.41699
lfemur 8.80803 0.429085 5.70014
ltibia 5.40694e-14 -0 0
lfoot -30.4069 -11.1407 -1.90466e-05
ltoes -34.2862 0 0
rfemur -30.9828 -15.7162 -6.28684
rtibia 49.9822 -0 0
rfoot -21.8774 5.4555 -0.00014919
rtoes -40.9426 0 0
lowerback -1.84606 -0.057384 -0.229173
upperback -0.475308 -0.0380492 -6.02328
thorax 0.543459 -0.0202775 -6.11476
lowerneck -7.06922 0.712255 6.4837
upperneck 1.35576 0.259789 3.70545
head 1.6269 0.260168 0.0766994
lclavicle 6.95746e-16 4.29375e-14 0
lhumerus -58.7142 -46.9501 115.427
lradius 55.822 -0 0
lwrist 25.6443 0 0
lhand 37.4466 25.2725 1.28034e-05
lfingers 7.12502 -0 0
lthumb 60.2468 38.7908 -1.02428e-05
rclavicle 6.95746e-16 4.29375e-14 0
rhumerus 2.11405 -23.563 0.639353
rradius 27.4671 -0 0
rwrist -9.64813 0 0
rhand -30.5515 -42.0422 0.000115001
rfingers 7.12502 -0 0
rthumb -3.85001 -71.9869 0.000110508
1055
root 1.20918 15.1609 32.562 4.89024 -3.35471 3.408
lfemur 8.82031 0.425523 5.70283
ltibia 5.40694e-14 -0 0
lfoot -30.4143 -11.1331 -1.36745e-05
ltoes -34.2978 0 0
rfemur -30.9543 -15.6751 -6.29186
rtibia 49.9689 -0 0
rfoot -21.8651 5.41979 -0.000107111
rtoes -40.9261 0 0
lowerback -1.85937 -0.0564928 -0.240642
upperback -0.474712 -0.0361088 -6.02131
thorax 0.551771 -0.019189 -6.10608
lowerneck -7.07416 0.703199 6.48359
upperneck 1.36129 0.246676 3.71541
head 1.62938 0.25412 0.0794144
lclavicle 6.95746e-16 4.29375e-14 0
lhumerus -58.7104 -46.9535 115.431
lradius 55.8211 -0 0
lwrist 25.634 0 0
lhand 37.4555 25.2767 9.19221e-06
lfingers 7.12502 -0 0
lthumb 60.2544 38.7869 -7.35378e-06
rclavicle 6.95746e-16 4.29375e-14 0
rhumerus 2.08042 -23.5315 0.654209
rradius 27.4707 -0 0
rwrist -9.6376 0 0
rhand -30.5419 -42.0067 8.25645e-05
rfingers 7.12502 -0 0
rthumb -3.84082 -71.9516 7.93389e-05
1056
root 1.21083 15.1613 32.5661 4.89215 -3.34917 3.399
lfemur 8.83258 0.42196 5.70551
ltibia 5.40694e-14 -0 0
lfoot -30.4217 -11.1256 -7.3256e-06
ltoes -34.3093 0 0
rfemur -30.9257 -15.6339 -6.29685
rtibia 49.9556 -0 0
rfoot -21.8529 5.38408 -5.73806e-05
rtoes -40.9097 0 0
lowerback -1.87268 -0.0556043 -0.252112
upperback -0.474115 -0.0341685 -6.01934
thorax 0.560082 -0.0181019 -6.0974
lowerneck -7.0791 0.694143 6.48349
upperneck 1.36682 0.233563 3.72538
head 1.63185 0.248071 0.0821291
lclavicle 6.95746e-16 4.29375e-14 0
lhumerus -58.7067 -46.957 115.436
lradius 55.8202 -0 0
lwrist 25.6237 0 0
lhand 37.4645 25.2809 4.9244e-06
lfingers 7.12502 -0 0
lthumb 60.2621 38.7829 -3.93952e-06
rclavicle 6.95746e-16 4.29375e-14 0
rhumerus 2.04681 -23.4999 0.669041
rradius 27.4743 -0 0
rwrist -9.62707 0 0
rhand -30.5324 -41.9713 4.42309e-05
rfingers 7.12502 -0 0
rthumb -3.83162 -71.9163 4.25029e-05
1057
root 1.21248 15.1616 32.5701 4.89405 -3.34364 363.39
lfemur 8.84486 0.418396 5.70819
ltibia 4.13472e-14 0 0
lfoot -30.4291 -11.118 0
ltoes -34.3209 0 0
rfemur -30.8972 -15.5928 -6.30183
rtibia 49.9423 0 0
rfoot -21.8406 5.34837 0
rtoes -40.8932 0 0
lowerback -1.88599 -0.0547184 -0.263582
upperback -0.473519 -0.0322281 -6.01737
thorax 0.568394 -0.017016 -6.08872
lowerneck -7.08404 0.685087 6.48338
upperneck 1.37235 0.220448 3.73534
head 1.63432 0.242022 0.0848435
lclavicle 6.16232e-15 3.18055e-14 0
lhumerus -58.703 -46.9605 115.44
lradius 55.8193 0 0
lwrist 25.6134 0 0
lhand 37.4734 25.2851 0
lfingers 7.12502 0 0
lthumb 60.2697 38.779 0
rclavicle 6.16232e-15 3.18055e-14 0
rhumerus 2.01322 -23.4684 0.68385
rradius 27.4779 0 0
rwrist -9.61654 0 0
rhand -30.5229 -41.9358 0
rfingers 7.12502 0 0
rthumb -3.82243 -791.881 0
1058
root 1.21451 15.162 32.5741 4.89873 -3.35506 3.38088
lfemur 8.79619 0.434154 5.68565
ltibia 0.132991 -0 0
lfoot -30.5014 -11.0914 -0.000251663
ltoes -34.3203 0 0
rfemur -30.8789 -15.5737 -6.30389
rtibia 49.9224 -0 0
rfoot -21.8402 5.34709 -7.52141e-08
rtoes -40.8895 0 0
lowerback -1.89538 -0.0567833 -0.273493
upperback -0.47715 -0.03472 -6.00888
thorax 0.569689 -0.0183144 -6.0741
lowerneck -7.08688 0.688921 6.47566
upperneck 1.3878 0.225195 3.7343
head 1.63993 0.244901 0.086009
lclavicle 6.16232e-15 3.18055e-14 0
lhumerus -58.6937 -46.9468 115.448
lradius 55.8103 -0 0
lwrist 25.6096 0 0
lhand 37.4767 25.2814 -1.59042e-06
lfingers 7.12502 -0 0
lthumb 60.2725 38.7723 -2.44378e-06
rclavicle 6.16232e-15 3.18055e-14 0
rhumerus 2.02429 -23.4445 0.670361
rradius 27.4827 -0 0
rwrist -9.59442 0 0
rhand -30.5356 -41.9269 -1.47561e-05
rfingers 7.12502 -0 0
rthumb -3.83467 -71.8719 -1.46202e-05
1059
root 1.21653 15.1624 32.578 4.90341 -3.36648 3.37176
lfemur 8.74752 0.449893 5.6631
ltibia 0.265983 -0 0
lfoot -30.5737 -11.0648 -0.000469772
ltoes -34.3198 0 0
rfemur -30.8606 -15.5545 -6.30595
rtibia 49.9024 -0 0
rfoot -21.8397 5.34582 -1.404e-07
rtoes -40.8857 0 0
lowerback -1.90476 -0.0588498 -0.283404
upperback -0.480781 -0.0372113 -6.00039
thorax 0.570984 -0.0196131 -6.05948
lowerneck -7.08973 0.692755 6.46795
upperneck 1.40325 0.229942 3.73327
head 1.64553 0.24778 0.0871749
lclavicle 6.16232e-15 3.18055e-14 0
lhumerus -58.6843 -46.9332 115.456
lradius 55.8012 -0 0
lwrist 25.6059 0 0
lhand 37.4799 25.2776 -2.96878e-06
lfingers 7.12502 -0 0
lthumb 60.2753 38.7656 -4.56173e-06
rclavicle 6.16232e-15 3.18055e-14 0
rhumerus 2.03535 -23.4207 0.65688
rradius 27.4875 -0 0
rwrist -9.5723 0 0
rhand -30.5482 -41.918 -2.75447e-05
rfingers 7.12502 -0 0
rthumb -3.84691 -71.8627 -2.7291e-05
1060
root 1.21856 15.1628 32.582 4.90809 -3.3779 3.36264
lfemur 8.69884 0.465613 5.64054
ltibia 0.398974 -0 0
lfoot -30.646 -11.0382 -0.000654327
ltoes -34.3192 0 0
rfemur -30.8424 -15.5354 -6.308
rtibia 49.8825 -0 0
rfoot -21.8393 5.34454 -1.95557e-07
rtoes -40.882 0 0
lowerback -1.91415 -0.0609179 -0.293315
upperback -0.484413 -0.0397021 -5.9919
thorax 0.572279 -0.0209122 -6.04487
lowerneck -7.09257 0.696589 6.46023
upperneck 1.41871 0.23469 3.73224
head 1.65114 0.250659 0.088341
lclavicle 6.16232e-15 3.18055e-14 0
lhumerus -58.675 -46.9195 115.464
lradius 55.7922 -0 0
lwrist 25.6021 0 0
lhand 37.4832 25.2739 -4.13508e-06
lfingers 7.12502 -0 0
lthumb 60.278 38.7589 -6.35384e-06
rclavicle 6.16232e-15 3.18055e-14 0
rhumerus 2.0464 -23.3968 0.643407
rradius 27.4923 -0 0
rwrist -9.55018 0 0
rhand -30.5609 -41.9091 -3.83659e-05
rfingers 7.12502 -0 0
rthumb -3.85915 -71.8536 -3.80125e-05
1061
root 1.22058 15.1632 32.586 4.91277 -3.38932 3.35352
lfemur 8.65016 0.481313 5.61797
ltibia 0.531965 -0 0
lfoot -30.7183 -11.0116 -0.000805327
ltoes -34.3187 0 0
rfemur -30.8241 -15.5162 -6.31005
rtibia 49.8625 -0 0
rfoot -21.8388 5.34326 -2.40685e-07
rtoes -40.8783 0 0
lowerback -1.92353 -0.0629876 -0.303225
upperback -0.488045 -0.0421923 -5.98341
thorax 0.573573 -0.0222115 -6.03025
lowerneck -7.09541 0.700422 6.45251
upperneck 1.43416 0.239438 3.73121
head 1.65675 0.253537 0.0895074
lclavicle 6.16232e-15 3.18055e-14 0
lhumerus -58.6656 -46.9059 115.472
lradius 55.7831 -0 0
lwrist 25.5984 0 0
lhand 37.4864 25.2702 -5.08933e-06
lfingers 7.12502 -0 0
lthumb 60.2808 38.7522 -7.82011e-06
rclavicle 6.16232e-15 3.18055e-14 0
rhumerus 2.05745 -23.3729 0.629941
rradius 27.4971 -0 0
rwrist -9.52806 0 0
rhand -30.5736 -41.9002 -4.72195e-05
rfingers 7.12502 -0 0
rthumb -3.87139 -71.8445 -4.67846e-05
1062
root 1.22261 15.1636 32.59 4.91745 -3.40074 3.3444
lfemur 8.60147 0.496995 5.59538
ltibia 0.664956 -0 0
lfoot -30.7906 -10.985 -0.000922771
ltoes -34.3181 0 0
rfemur -30.8058 -15.4971 -6.31209
rtibia 49.8426 -0 0
rfoot -21.8384 5.34199 -2.75785e-07
rtoes -40.8745 0 0
lowerback -1.93292 -0.065059 -0.313135
upperback -0.491677 -0.044682 -5.97492
thorax 0.574867 -0.0235112 -6.01563
lowerneck -7.09826 0.704255 6.44479
upperneck 1.44961 0.244186 3.73018
head 1.66236 0.256416 0.090674
lclavicle 6.16232e-15 3.18055e-14 0
lhumerus -58.6563 -46.8922 115.48
lradius 55.7741 -0 0
lwrist 25.5946 0 0
lhand 37.4897 25.2664 -5.83153e-06
lfingers 7.12502 -0 0
lthumb 60.2836 38.7454 -8.96054e-06
rclavicle 6.16232e-15 3.18055e-14 0
rhumerus 2.06848 -23.349 0.616482
rradius 27.502 -0 0
rwrist -9.50595 0 0
rhand -30.5863 -41.8913 -5.41057e-05
rfingers 7.12502 -0 0
rthumb -3.88363 -71.8354 -5.36074e-05
1063
root 1.22463 15.164 32.5939 4.92214 -3.41216 3.33528
lfemur 8.55277 0.512657 5.57277
ltibia 0.797948 -0 0
lfoot -30.8629 -10.9584 -0.00100666
ltoes -34.3175 0 0
rfemur -30.7876 -15.4779 -6.31412
rtibia 49.8227 -0 0
rfoot -21.8379 5.34071 -3.00857e-07
rtoes -40.8708 0 0
lowerback -1.9423 -0.067132 -0.323044
upperback -0.49531 -0.0471712 -5.96643
thorax 0.57616 -0.0248113 -6.00101
lowerneck -7.1011 0.708087 6.43708
upperneck 1.46506 0.248934 3.72915
head 1.66796 0.259295 0.091841
lclavicle 6.16232e-15 3.18055e-14 0
lhumerus -58.6469 -46.8786 115.488
lradius 55.765 -0 0
lwrist 25.5909 0 0
lhand 37.4929 25.2627 -6.36166e-06
lfingers 7.12502 -0 0
lthumb 60.2864 38.7387 -9.77514e-06
rclavicle 6.16232e-15 3.18055e-14 0
rhumerus 2.07951 -23.3251 0.60303
rradius 27.5068 -0 0
rwrist -9.48383 0 0
rhand -30.5989 -41.8824 -5.90244e-05
rfingers 7.12502 -0 0
rthumb -3.89587 -71.8262 -5.84808e-05
1064
root 1.22666 15.1644 32.5979 4.92683 -3.42357 3.32616
lfemur 8.50407 0.5283 5.55016
ltibia 0.930939 -0 0
lfoot -30.9352 -10.9318 -0.00105699
ltoes -34.317 0 0
rfemur -30.7693 -15.4588 -6.31614
rtibia 49.8027 -0 0
rfoot -21.8375 5.33943 -3.15899e-07
rtoes -40.8671 0 0
lowerback -1.95168 -0.0692066 -0.332954
upperback -0.498943 -0.0496598 -5.95794
thorax 0.577454 -0.0261116 -5.9864
lowerneck -7.10395 0.711919 6.42936
upperneck 1.48052 0.253683 3.72812
head 1.67357 0.262173 0.0930082
lclavicle 6.16232e-15 3.18055e-14 0
lhumerus -58.6376 -46.8649 115.496
lradius 55.756 -0 0
lwrist 25.5871 0 0
lhand 37.4962 25.259 -6.67975e-06
lfingers 7.12502 -0 0
lthumb 60.2892 38.732 -1.02639e-05
rclavicle 6.16232e-15 3.18055e-14 0
rhumerus 2.09053 -23.3013 0.589587
rradius 27.5116 -0 0
rwrist -9.46171 0 0
rhand -30.6116 -41.8735 -6.19756e-05
rfingers 7.12502 -0 0
rthumb -3.90811 -71.8171 -6.14048e-05
